<?xml version="1.0" encoding="UTF-8"?>
<svg xmlns="http://www.w3.org/2000/svg" width="940" height="260" class="w-full" role="img" aria-label="Predicted against realized portfolio loss and default counts" viewBox="0 0 940 260"><style>:root { --viz-predicted: #2a78d6; --viz-observed: #eb6834; --color-muted: #898781; }
svg { background: #fcfcfb; font-family: system-ui, -apple-system, "Segoe UI", sans-serif; }
text { font-size: 10px; font-variant-numeric: tabular-nums; }
.fill-muted { fill: #898781 }
.stroke-muted { stroke: #898781 }
.stroke-separator { stroke: #e1e0d9 }
.stroke-border { stroke: #c3c2b7 }
.stroke-surface { stroke: #fcfcfb }
@media (prefers-color-scheme: dark) {
  :root { --viz-predicted: #3987e5; --viz-observed: #d95926; --color-muted: #8f8d87; }
  svg { background: #1a1a19 }
  .stroke-separator { stroke: #2c2c2a }
  .stroke-border { stroke: #383835 }
  .stroke-surface { stroke: #1a1a19 }
}</style><g><text x="241" y="14" text-anchor="middle" class="fill-muted text-[10px]">loss, $</text><path d="M 93 226 L 93 181.93463860697142 Q 93 177.93463860697142 97 177.93463860697142 L 209 177.93463860697142 Q 213 177.93463860697142 213 181.93463860697142 L 213 226 Z" fill="var(--viz-predicted)"></path><path d="M 269 226 L 269 67.28813559322035 Q 269 63.288135593220346 273 63.288135593220346 L 385 63.288135593220346 Q 389 63.288135593220346 389 67.28813559322035 L 389 226 Z" fill="var(--viz-observed)"></path><line x1="93" x2="389" y1="177.93463860697142" y2="177.93463860697142" class="stroke-muted" stroke-width="1" stroke-dasharray="3 3"></line><text x="153" y="169.93463860697142" text-anchor="middle" class="fill-muted text-[10px] tabular-nums">161.4M</text><text x="329" y="55.288135593220346" text-anchor="middle" fill="var(--viz-observed)" class="text-[10px] tabular-nums" font-size="13">546.4M</text><text x="399" y="120.61138710009588" class="fill-muted text-[10px] tabular-nums" font-size="13">×3.39</text><text x="153" y="242" text-anchor="middle" class="fill-muted text-[10px]">predicted</text><text x="329" y="242" text-anchor="middle" class="fill-muted text-[10px]">realized</text></g><g><text x="699" y="14" text-anchor="middle" class="fill-muted text-[10px]">defaults, positions</text><path d="M 551 226 L 551 172.72478114465747 Q 551 168.72478114465747 555 168.72478114465747 L 667 168.72478114465747 Q 671 168.72478114465747 671 172.72478114465747 L 671 226 Z" fill="var(--viz-predicted)"></path><path d="M 727 226 L 727 67.28813559322032 Q 727 63.28813559322032 731 63.28813559322032 L 843 63.28813559322032 Q 847 63.28813559322032 847 67.28813559322032 L 847 226 Z" fill="var(--viz-observed)"></path><line x1="551" x2="847" y1="168.72478114465747" y2="168.72478114465747" class="stroke-muted" stroke-width="1" stroke-dasharray="3 3"></line><text x="611" y="160.72478114465747" text-anchor="middle" class="fill-muted text-[10px] tabular-nums">2,272</text><text x="787" y="55.28813559322032" text-anchor="middle" fill="var(--viz-observed)" class="text-[10px] tabular-nums" font-size="13">6,455</text><text x="857" y="116.0064583689389" class="fill-muted text-[10px] tabular-nums" font-size="13">×2.84</text><text x="611" y="242" text-anchor="middle" class="fill-muted text-[10px]">predicted</text><text x="787" y="242" text-anchor="middle" class="fill-muted text-[10px]">realized</text></g><line x1="12" x2="928" y1="226" y2="226" class="stroke-border" stroke-width="1"></line></svg>
